<svg width="0" height="0" class="hidden">
  <symbol  xmlns="http://www.w3.org/2000/svg" viewBox="0 0 20 20" id="status">
    <path d="M17.354 2.64692C17.1107 2.40337 16.8217 2.21016 16.5037 2.07834C16.1857 1.94651 15.8448 1.87866 15.5005 1.87866C15.1562 1.87866 14.8153 1.94651 14.4973 2.07834C14.1793 2.21016 13.8903 2.40337 13.647 2.64692L8.14699 8.14692C8.08278 8.21087 8.03716 8.29106 8.01499 8.37892L7.01499 12.3789C6.99415 12.4626 6.99531 12.5503 7.01838 12.6334C7.04145 12.7166 7.08562 12.7923 7.14662 12.8533C7.20762 12.9143 7.28336 12.9585 7.36648 12.9815C7.44961 13.0046 7.53728 13.0058 7.62099 12.9849L11.621 11.9849C11.7091 11.9632 11.7897 11.9179 11.854 11.8539L17.354 6.35392C17.5975 6.1106 17.7908 5.82166 17.9226 5.50363C18.0544 5.18559 18.1223 4.8447 18.1223 4.50042C18.1223 4.15615 18.0544 3.81525 17.9226 3.49722C17.7908 3.17918 17.5975 2.89025 17.354 2.64692ZM14.354 3.35392C14.6581 3.04985 15.0705 2.87903 15.5005 2.87903C15.9305 2.87903 16.3429 3.04985 16.647 3.35392C16.9511 3.65799 17.1219 4.0704 17.1219 4.50042C17.1219 4.93044 16.9511 5.34285 16.647 5.64692L11.244 11.0489L8.18699 11.8129L8.95099 8.75592L14.354 3.35392ZM9.99999 3.99992C10.28 4.00059 10.5543 4.01926 10.823 4.05592L11.677 3.20192C10.1925 2.83597 8.62908 2.96608 7.22554 3.57239C5.822 4.17869 4.65555 5.22784 3.90444 6.55952C3.15333 7.8912 2.85886 9.43217 3.06604 10.947C3.27321 12.4618 3.97063 13.8671 5.05173 14.9482C6.13282 16.0293 7.53814 16.7267 9.05294 16.9339C10.5677 17.1411 12.1087 16.8466 13.4404 16.0955C14.7721 15.3444 15.8212 14.1779 16.4275 12.7744C17.0338 11.3708 17.1639 9.80738 16.798 8.32292L15.944 9.17692C15.9813 9.44692 16 9.72126 16 9.99992C16 11.1866 15.6481 12.3466 14.9888 13.3333C14.3295 14.32 13.3924 15.0891 12.2961 15.5432C11.1997 15.9973 9.99334 16.1161 8.82945 15.8846C7.66556 15.6531 6.59647 15.0817 5.75735 14.2426C4.91824 13.4034 4.34679 12.3344 4.11528 11.1705C3.88377 10.0066 4.00259 8.80018 4.45671 7.70382C4.91084 6.60747 5.67988 5.67039 6.66657 5.01111C7.65327 4.35182 8.8133 3.99992 9.99999 3.99992Z" fill="black"></path>
  </symbol>
  <symbol  xmlns="http://www.w3.org/2000/svg" viewBox="0 0 24 24" id="task">
    <path d="M7.99809 16H11.9981M7.99809 11H15.9981M7.50009 3.5C5.94409 3.547 5.01709 3.72 4.37509 4.362C3.49609 5.242 3.49609 6.657 3.49609 9.488V15.994C3.49609 18.826 3.49609 20.241 4.37509 21.121C5.25309 22 6.66809 22 9.49609 22H14.4961C17.3251 22 18.7391 22 19.6171 21.12C20.4971 20.241 20.4971 18.826 20.4971 15.994V9.488C20.4971 6.658 20.4971 5.242 19.6171 4.362C18.9761 3.72 18.0481 3.547 16.4921 3.5" stroke="black" stroke-width="1.5" stroke-linecap="round" stroke-linejoin="round"></path>
    <path d="M7.49609 3.75C7.49609 2.784 8.28009 2 9.24609 2H14.7461C15.2102 2 15.6553 2.18437 15.9835 2.51256C16.3117 2.84075 16.4961 3.28587 16.4961 3.75C16.4961 4.21413 16.3117 4.65925 15.9835 4.98744C15.6553 5.31563 15.2102 5.5 14.7461 5.5H9.24609C8.78197 5.5 8.33685 5.31563 8.00866 4.98744C7.68047 4.65925 7.49609 4.21413 7.49609 3.75Z" stroke="black" stroke-width="1.5" stroke-linecap="round" stroke-linejoin="round"></path>
  </symbol>
  <symbol  xmlns="http://www.w3.org/2000/svg" viewBox="0 0 24 24" id="profile">
    <path d="M12 2C6.477 2 2 6.477 2 12C2 17.523 6.477 22 12 22C17.523 22 22 17.523 22 12C22 6.477 17.523 2 12 2Z" stroke="black" stroke-width="1.5" stroke-linecap="round" stroke-linejoin="round"></path>
    <path d="M4.271 18.346C4.271 18.346 6.5 15.5 12 15.5C17.5 15.5 19.73 18.346 19.73 18.346M12 12C12.7956 12 13.5587 11.6839 14.1213 11.1213C14.6839 10.5587 15 9.79565 15 9C15 8.20435 14.6839 7.44129 14.1213 6.87868C13.5587 6.31607 12.7956 6 12 6C11.2043 6 10.4413 6.31607 9.87868 6.87868C9.31607 7.44129 9 8.20435 9 9C9 9.79565 9.31607 10.5587 9.87868 11.1213C10.4413 11.6839 11.2043 12 12 12Z" stroke="black" stroke-width="1.5" stroke-linecap="round" stroke-linejoin="round"></path>
  </symbol>
  <symbol  xmlns="http://www.w3.org/2000/svg" viewBox="0 0 24 24" id="category">
    <path d="M8.01911 7.55211L7.31211 6.84511M10.9801 20.1941L3.68211 12.8961C3.31211 12.5261 3.10211 12.0261 3.09511 11.5041L3.00011 4.01511C2.99809 3.88126 3.02296 3.74837 3.07325 3.62431C3.12355 3.50025 3.19824 3.38755 3.29289 3.29289C3.38755 3.19824 3.50025 3.12355 3.62431 3.07325C3.74837 3.02296 3.88126 2.99809 4.01511 3.00011L11.5041 3.09511C12.027 3.10128 12.5267 3.31199 12.8961 3.68211L20.1941 10.9801C20.8681 11.6531 21.3861 12.9391 20.6181 13.7071L13.7081 20.6171C12.9391 21.3861 11.6531 20.8671 10.9801 20.1941Z" stroke="black" stroke-width="1.5" stroke-linecap="round" stroke-linejoin="round"></path>
  </symbol>
   <symbol  xmlns="http://www.w3.org/2000/svg" viewBox="0 0 24 24" id="down-arrow">
    <path fill-rule="evenodd" clip-rule="evenodd" d="M13.0599 16.0599C12.7787 16.3408 12.3974 16.4986 11.9999 16.4986C11.6024 16.4986 11.2212 16.3408 10.9399 16.0599L5.2819 10.4039C5.00064 10.1225 4.84268 9.74089 4.84277 9.34304C4.84287 8.94518 5.00101 8.56365 5.2824 8.28239C5.56379 8.00113 5.9454 7.84317 6.34325 7.84326C6.74111 7.84336 7.12264 8.00149 7.4039 8.28289L11.9999 12.8789L16.5959 8.28289C16.8787 8.00952 17.2575 7.85814 17.6508 7.86137C18.0441 7.8646 18.4204 8.02218 18.6986 8.30016C18.9769 8.57815 19.1348 8.95429 19.1384 9.34759C19.142 9.74088 18.991 10.1199 18.7179 10.4029L13.0609 16.0609L13.0599 16.0599Z" fill="black"></path>
  </symbol>
</svg>