<svg width="0" height="0" class="hidden">
  <symbol  xmlns="http://www.w3.org/2000/svg" viewBox="0 0 20 20" id="status">
    <path d="M17.354 2.64692C17.1107 2.40337 16.8217 2.21016 16.5037 2.07834C16.1857 1.94651 15.8448 1.87866 15.5005 1.87866C15.1562 1.87866 14.8153 1.94651 14.4973 2.07834C14.1793 2.21016 13.8903 2.40337 13.647 2.64692L8.14699 8.14692C8.08278 8.21087 8.03716 8.29106 8.01499 8.37892L7.01499 12.3789C6.99415 12.4626 6.99531 12.5503 7.01838 12.6334C7.04145 12.7166 7.08562 12.7923 7.14662 12.8533C7.20762 12.9143 7.28336 12.9585 7.36648 12.9815C7.44961 13.0046 7.53728 13.0058 7.62099 12.9849L11.621 11.9849C11.7091 11.9632 11.7897 11.9179 11.854 11.8539L17.354 6.35392C17.5975 6.1106 17.7908 5.82166 17.9226 5.50363C18.0544 5.18559 18.1223 4.8447 18.1223 4.50042C18.1223 4.15615 18.0544 3.81525 17.9226 3.49722C17.7908 3.17918 17.5975 2.89025 17.354 2.64692ZM14.354 3.35392C14.6581 3.04985 15.0705 2.87903 15.5005 2.87903C15.9305 2.87903 16.3429 3.04985 16.647 3.35392C16.9511 3.65799 17.1219 4.0704 17.1219 4.50042C17.1219 4.93044 16.9511 5.34285 16.647 5.64692L11.244 11.0489L8.18699 11.8129L8.95099 8.75592L14.354 3.35392ZM9.99999 3.99992C10.28 4.00059 10.5543 4.01926 10.823 4.05592L11.677 3.20192C10.1925 2.83597 8.62908 2.96608 7.22554 3.57239C5.822 4.17869 4.65555 5.22784 3.90444 6.55952C3.15333 7.8912 2.85886 9.43217 3.06604 10.947C3.27321 12.4618 3.97063 13.8671 5.05173 14.9482C6.13282 16.0293 7.53814 16.7267 9.05294 16.9339C10.5677 17.1411 12.1087 16.8466 13.4404 16.0955C14.7721 15.3444 15.8212 14.1779 16.4275 12.7744C17.0338 11.3708 17.1639 9.80738 16.798 8.32292L15.944 9.17692C15.9813 9.44692 16 9.72126 16 9.99992C16 11.1866 15.6481 12.3466 14.9888 13.3333C14.3295 14.32 13.3924 15.0891 12.2961 15.5432C11.1997 15.9973 9.99334 16.1161 8.82945 15.8846C7.66556 15.6531 6.59647 15.0817 5.75735 14.2426C4.91824 13.4034 4.34679 12.3344 4.11528 11.1705C3.88377 10.0066 4.00259 8.80018 4.45671 7.70382C4.91084 6.60747 5.67988 5.67039 6.66657 5.01111C7.65327 4.35182 8.8133 3.99992 9.99999 3.99992Z" fill="black"></path>
  </symbol>
  <symbol  xmlns="http://www.w3.org/2000/svg" viewBox="0 0 24 24" id="task">
    <path d="M7.99809 16H11.9981M7.99809 11H15.9981M7.50009 3.5C5.94409 3.547 5.01709 3.72 4.37509 4.362C3.49609 5.242 3.49609 6.657 3.49609 9.488V15.994C3.49609 18.826 3.49609 20.241 4.37509 21.121C5.25309 22 6.66809 22 9.49609 22H14.4961C17.3251 22 18.7391 22 19.6171 21.12C20.4971 20.241 20.4971 18.826 20.4971 15.994V9.488C20.4971 6.658 20.4971 5.242 19.6171 4.362C18.9761 3.72 18.0481 3.547 16.4921 3.5" stroke="black" stroke-width="1.5" stroke-linecap="round" stroke-linejoin="round"></path>
    <path d="M7.49609 3.75C7.49609 2.784 8.28009 2 9.24609 2H14.7461C15.2102 2 15.6553 2.18437 15.9835 2.51256C16.3117 2.84075 16.4961 3.28587 16.4961 3.75C16.4961 4.21413 16.3117 4.65925 15.9835 4.98744C15.6553 5.31563 15.2102 5.5 14.7461 5.5H9.24609C8.78197 5.5 8.33685 5.31563 8.00866 4.98744C7.68047 4.65925 7.49609 4.21413 7.49609 3.75Z" stroke="black" stroke-width="1.5" stroke-linecap="round" stroke-linejoin="round"></path>
  </symbol>
  <symbol  xmlns="http://www.w3.org/2000/svg" viewBox="0 0 24 24" id="profile">
    <path d="M12 2C6.477 2 2 6.477 2 12C2 17.523 6.477 22 12 22C17.523 22 22 17.523 22 12C22 6.477 17.523 2 12 2Z" stroke="black" stroke-width="1.5" stroke-linecap="round" stroke-linejoin="round"></path>
    <path d="M4.271 18.346C4.271 18.346 6.5 15.5 12 15.5C17.5 15.5 19.73 18.346 19.73 18.346M12 12C12.7956 12 13.5587 11.6839 14.1213 11.1213C14.6839 10.5587 15 9.79565 15 9C15 8.20435 14.6839 7.44129 14.1213 6.87868C13.5587 6.31607 12.7956 6 12 6C11.2043 6 10.4413 6.31607 9.87868 6.87868C9.31607 7.44129 9 8.20435 9 9C9 9.79565 9.31607 10.5587 9.87868 11.1213C10.4413 11.6839 11.2043 12 12 12Z" stroke="black" stroke-width="1.5" stroke-linecap="round" stroke-linejoin="round"></path>
  </symbol>
  <symbol  xmlns="http://www.w3.org/2000/svg" viewBox="0 0 24 24" id="category">
    <path d="M8.01911 7.55211L7.31211 6.84511M10.9801 20.1941L3.68211 12.8961C3.31211 12.5261 3.10211 12.0261 3.09511 11.5041L3.00011 4.01511C2.99809 3.88126 3.02296 3.74837 3.07325 3.62431C3.12355 3.50025 3.19824 3.38755 3.29289 3.29289C3.38755 3.19824 3.50025 3.12355 3.62431 3.07325C3.74837 3.02296 3.88126 2.99809 4.01511 3.00011L11.5041 3.09511C12.027 3.10128 12.5267 3.31199 12.8961 3.68211L20.1941 10.9801C20.8681 11.6531 21.3861 12.9391 20.6181 13.7071L13.7081 20.6171C12.9391 21.3861 11.6531 20.8671 10.9801 20.1941Z" stroke="black" stroke-width="1.5" stroke-linecap="round" stroke-linejoin="round"></path>
  </symbol>
   <symbol  xmlns="http://www.w3.org/2000/svg" viewBox="0 0 24 24" id="down-arrow">
    <path fill-rule="evenodd" clip-rule="evenodd" d="M13.0599 16.0599C12.7787 16.3408 12.3974 16.4986 11.9999 16.4986C11.6024 16.4986 11.2212 16.3408 10.9399 16.0599L5.2819 10.4039C5.00064 10.1225 4.84268 9.74089 4.84277 9.34304C4.84287 8.94518 5.00101 8.56365 5.2824 8.28239C5.56379 8.00113 5.9454 7.84317 6.34325 7.84326C6.74111 7.84336 7.12264 8.00149 7.4039 8.28289L11.9999 12.8789L16.5959 8.28289C16.8787 8.00952 17.2575 7.85814 17.6508 7.86137C18.0441 7.8646 18.4204 8.02218 18.6986 8.30016C18.9769 8.57815 19.1348 8.95429 19.1384 9.34759C19.142 9.74088 18.991 10.1199 18.7179 10.4029L13.0609 16.0609L13.0599 16.0599Z" fill="black"></path>
  </symbol>
  <symbol  xmlns="http://www.w3.org/2000/svg" viewBox="0 0 24 24" id="delete">
    <path d="M11.9999 9L17.9999 15M17.9999 9L11.9999 15M9.99994 5C9.50302 5.00003 9.02391 5.18504 8.65594 5.519L2.32794 11.259C2.22466 11.3527 2.14213 11.467 2.08565 11.5946C2.02918 11.7221 2 11.86 2 11.9995C2 12.139 2.02918 12.2769 2.08565 12.4044C2.14213 12.532 2.22466 12.6463 2.32794 12.74L8.65594 18.481C9.02391 18.815 9.50302 19 9.99994 19H19.9999C20.5304 19 21.0391 18.7893 21.4142 18.4142C21.7892 18.0391 21.9999 17.5304 21.9999 17V7C21.9999 6.46957 21.7892 5.96086 21.4142 5.58579C21.0391 5.21071 20.5304 5 19.9999 5H9.99994Z" stroke="black" stroke-width="2" stroke-linecap="round" stroke-linejoin="round"></path>
  </symbol>
   <symbol  xmlns="http://www.w3.org/2000/svg" viewBox="0 0 16 16" id="plus">
    <path d="M8.5 2.75C8.5 2.55109 8.42098 2.36032 8.28033 2.21967C8.13968 2.07902 7.94891 2 7.75 2C7.55109 2 7.36032 2.07902 7.21967 2.21967C7.07902 2.36032 7 2.55109 7 2.75V7H2.75C2.55109 7 2.36032 7.07902 2.21967 7.21967C2.07902 7.36032 2 7.55109 2 7.75C2 7.94891 2.07902 8.13968 2.21967 8.28033C2.36032 8.42098 2.55109 8.5 2.75 8.5H7V12.75C7 12.9489 7.07902 13.1397 7.21967 13.2803C7.36032 13.421 7.55109 13.5 7.75 13.5C7.94891 13.5 8.13968 13.421 8.28033 13.2803C8.42098 13.1397 8.5 12.9489 8.5 12.75V8.5H12.75C12.9489 8.5 13.1397 8.42098 13.2803 8.28033C13.421 8.13968 13.5 7.94891 13.5 7.75C13.5 7.55109 13.421 7.36032 13.2803 7.21967C13.1397 7.07902 12.9489 7 12.75 7H8.5V2.75Z" ></path>
  </symbol>
   <symbol  xmlns="http://www.w3.org/2000/svg" viewBox="0 0 24 24" id="link">
    <path d="M13 6L15 4C16 3 18 3 19 4L20 5C21 6 21 8 20 9L15 14C14 15 12 15 11 14M11 18L9 20C8 21 6 21 5 20L4 19C3 18 3 16 4 15L9 10C10 9 12 9 13 10" stroke="black" stroke-width="2" stroke-linecap="round" stroke-linejoin="round"></path>
  </symbol>
  <symbol fill='none'  xmlns="http://www.w3.org/2000/svg" viewBox="0 0 24 24" id="users">
    <path d="M17 19.4999C17 17.8429 14.761 16.4999 12 16.4999C9.239 16.4999 7 17.8429 7 19.4999M21 16.4999C21 15.2699 19.766 14.2129 18 13.7499M3 16.4999C3 15.2699 4.234 14.2129 6 13.7499M18 9.73591C18.2963 9.474 18.5378 9.1561 18.7108 8.8005C18.8838 8.44491 18.9847 8.05862 19.0079 7.66386C19.031 7.26911 18.9759 6.87367 18.8456 6.5003C18.7154 6.12693 18.5127 5.78298 18.249 5.48825C17.9854 5.19351 17.6661 4.95381 17.3095 4.78291C16.9529 4.61201 16.5661 4.5133 16.1712 4.49245C15.7763 4.47161 15.3812 4.52903 15.0086 4.66142C14.636 4.79382 14.2932 4.99857 14 5.26391M6 9.73591C5.4123 9.20405 5.05896 8.46123 5.01717 7.6697C4.97538 6.87818 5.24853 6.10228 5.77696 5.5115C6.30539 4.92071 7.04614 4.56306 7.83741 4.51667C8.62868 4.47028 9.40616 4.73892 10 5.26391M12 13.4999C11.2044 13.4999 10.4413 13.1838 9.87868 12.6212C9.31607 12.0586 9 11.2956 9 10.4999C9 9.70426 9.31607 8.94119 9.87868 8.37858C10.4413 7.81598 11.2044 7.49991 12 7.49991C12.7956 7.49991 13.5587 7.81598 14.1213 8.37858C14.6839 8.94119 15 9.70426 15 10.4999C15 11.2956 14.6839 12.0586 14.1213 12.6212C13.5587 13.1838 12.7956 13.4999 12 13.4999Z" stroke="black" stroke-width="1.5" stroke-linecap="round" stroke-linejoin="round"></path>
  </symbol>
</svg>